<?xml version="1.0" encoding="iso-8859-1"?>
<!-- Uploaded to: SVG Repo, www.svgrepo.com, Generator: SVG Repo Mixer Tools -->
<!DOCTYPE svg PUBLIC "-//W3C//DTD SVG 1.1//EN" "http://www.w3.org/Graphics/SVG/1.1/DTD/svg11.dtd">
<svg fill="#000000" version="1.1" id="Capa_1" xmlns="http://www.w3.org/2000/svg" xmlns:xlink="http://www.w3.org/1999/xlink" 
	 width="800px" height="800px" viewBox="0 0 961.396 961.396"
	 xml:space="preserve">
<g>
	<g>
		<g>
			<path d="M744.49,876.396V572.694l-50,63.266v240.438c0,19.299-15.7,35-35,35H130.14c-19.299,0-35-15.701-35-35v-654.44
				c0-19.299,15.701-35,35-35h6.318v632.859c0,16.566,13.431,30,30,30h456.711c16.569,0,30-13.434,30-30V683.306
				c-22.849,20.059-50.48,34.438-80.269,41.442l-30.717,7.225l-36.785,8.652l-0.084-37.789l-0.067-31.556
				c-0.093-41.837,14.145-82.955,40.086-115.78l107.836-136.447V186.957h6.317c19.299,0,35,15.701,35,35v144.815l50-63.266v-81.549
				c0-46.869-38.131-85-85-85h-66.194c0.829,5.071,1.27,10.272,1.27,15.574v9.425v25.001v5.078v30.726h-30.727H232.626H201.9
				v-30.726v-5.078v-25.001v-9.425c0-5.302,0.439-10.503,1.269-15.574H130.14c-46.869,0-85,38.131-85,85v654.439
				c0,46.867,38.131,85,85,85h529.35C706.359,961.396,744.49,923.266,744.49,876.396z M386.748,677.104L270.644,793.207
				c-5.858,5.857-15.355,5.857-21.213,0l-34.341-34.341l-24.188-24.188c-5.858-5.856-5.858-15.354,0-21.213l23.735-23.733
				c5.858-5.857,15.355-5.857,21.213,0l24.188,24.188l81.762-81.762c5.858-5.858,15.355-5.858,21.214,0l23.733,23.732
				C392.605,661.748,392.605,671.246,386.748,677.104z M386.748,500.188L270.644,616.292c-5.858,5.858-15.355,5.858-21.213,0
				l-34.341-34.341l-24.188-24.188c-5.858-5.856-5.858-15.354,0-21.213l23.735-23.732c5.858-5.858,15.355-5.858,21.213,0
				l24.188,24.188l81.762-81.763c5.858-5.858,15.355-5.858,21.214,0l23.733,23.734C392.605,484.832,392.605,494.33,386.748,500.188z
				 M214.637,335.899c5.858-5.858,15.355-5.858,21.213,0l24.188,24.188l81.762-81.763c5.858-5.858,15.355-5.858,21.214,0
				l23.733,23.734c5.858,5.858,5.858,15.355,0,21.213L270.644,439.375c-5.858,5.858-15.355,5.858-21.213,0l-34.341-34.341
				l-24.188-24.188c-5.858-5.856-5.858-15.354,0-21.213L214.637,335.899z"/>
			<path d="M498.466,87.161h-13.072c0-5.242-0.465-10.376-1.352-15.363c-0.941-5.303-2.371-10.438-4.226-15.363
				C467.39,23.459,435.553,0,398.232,0c-37.321,0-69.158,23.459-81.584,56.435c-1.856,4.925-3.284,10.06-4.227,15.363
				c-0.887,4.987-1.351,10.121-1.351,15.363h-13.074c-30.734,0-56.501,21.215-63.489,49.796c-1.221,4.993-1.882,10.205-1.882,15.574
				v9.425v25.001v5.078h331.209v-5.078v-25.001v-9.425c0-5.369-0.66-10.582-1.882-15.574
				C554.966,108.376,529.201,87.161,498.466,87.161z"/>
			<path d="M910.88,278.289c0.623-0.786,1.184-1.601,1.694-2.435c6.535-10.632,4.23-24.708-5.801-32.637l-10.176-8.041
				c-10.033-7.93-24.264-6.918-33.096,1.899c-0.691,0.69-1.354,1.423-1.976,2.208l-7.596,9.612l-9.525,12.052
				c-3.731-1.575-7.688-2.362-11.631-2.362c-8.858,0.001-17.635,3.908-23.557,11.399l-64.73,81.904l-50,63.266l-41.317,52.28
				L568.873,574.1c-21.851,27.647-33.699,61.875-33.623,97.113l0.069,31.555l30.718-7.225c34.301-8.067,64.864-27.506,86.715-55.153
				l0.42-0.531l41.317-52.28l50-63.268l148.607-188.036c8.557-10.825,8.447-25.715,0.666-36.327l9.531-12.059L910.88,278.289z"/>
		</g>
	</g>
</g>
</svg>