<!DOCTYPE svg PUBLIC "-//W3C//DTD SVG 1.1//EN" "http://www.w3.org/Graphics/SVG/1.1/DTD/svg11.dtd">
<!-- Uploaded to: SVG Repo, www.svgrepo.com, Transformed by: SVG Repo Mixer Tools -->
<svg width="800px" height="800px" viewBox="0 0 24 24" fill="none" xmlns="http://www.w3.org/2000/svg">
<g id="SVGRepo_bgCarrier" stroke-width="0"/>
<g id="SVGRepo_tracerCarrier" stroke-linecap="round" stroke-linejoin="round"/>
<g id="SVGRepo_iconCarrier"> <path fill-rule="evenodd" clip-rule="evenodd" d="M15.4013 7.5H19C19.2761 7.5 19.5 7.27614 19.5 7C19.5 6.72386 19.2761 6.5 19 6.5H15.0415C15.1017 6.85896 15.2257 7.19631 15.4013 7.5ZM13.2289 7.5C13.1282 7.17938 13.0589 6.84484 13.0247 6.5H5C4.72386 6.5 4.5 6.72386 4.5 7C4.5 7.27614 4.72386 7.5 5 7.5H13.2289ZM5 11.5C4.72386 11.5 4.5 11.7239 4.5 12C4.5 12.2761 4.72386 12.5 5 12.5H19C19.2761 12.5 19.5 12.2761 19.5 12C19.5 11.7239 19.2761 11.5 19 11.5H5ZM5 16.5C4.72386 16.5 4.5 16.7239 4.5 17C4.5 17.2761 4.72386 17.5 5 17.5H19C19.2761 17.5 19.5 17.2761 19.5 17C19.5 16.7239 19.2761 16.5 19 16.5H5Z" fill="#000"/> <circle cx="18" cy="6" r="3" fill="#000"/> </g>
</svg>